<svg xmlns="http://www.w3.org/2000/svg" viewBox="0 0 512 512">
  <defs>
    <radialGradient id="bg" cx="45%" cy="38%" r="75%">
      <stop offset="0" stop-color="#182653"/>
      <stop offset="0.55" stop-color="#080d24"/>
      <stop offset="1" stop-color="#030512"/>
    </radialGradient>
    <linearGradient id="ship" x1="0" y1="0" x2="1" y2="1">
      <stop stop-color="#efffff"/>
      <stop offset="0.35" stop-color="#5ce8ff"/>
      <stop offset="1" stop-color="#9b62ff"/>
    </linearGradient>
    <filter id="glow" x="-60%" y="-60%" width="220%" height="220%">
      <feGaussianBlur stdDeviation="12" result="blur"/>
      <feMerge><feMergeNode in="blur"/><feMergeNode in="SourceGraphic"/></feMerge>
    </filter>
  </defs>
  <rect width="512" height="512" rx="112" fill="url(#bg)"/>
  <circle cx="256" cy="256" r="178" fill="none" stroke="#5ce8ff" stroke-opacity=".25" stroke-width="3" stroke-dasharray="18 15"/>
  <ellipse cx="256" cy="256" rx="205" ry="91" fill="none" stroke="#a66cff" stroke-opacity=".42" stroke-width="5" transform="rotate(-18 256 256)"/>
  <ellipse cx="256" cy="256" rx="145" ry="62" fill="none" stroke="#5ce8ff" stroke-opacity=".58" stroke-width="4" transform="rotate(22 256 256)"/>
  <circle cx="101" cy="326" r="10" fill="#b06cff" filter="url(#glow)"/>
  <circle cx="390" cy="147" r="8" fill="#5ce8ff" filter="url(#glow)"/>
  <g transform="translate(262 256) rotate(-8)" filter="url(#glow)">
    <path d="M118 0 L-76 -68 L-38 -14 L-52 0 L-38 14 L-76 68 Z" fill="#173b63" fill-opacity=".78" stroke="url(#ship)" stroke-width="10" stroke-linejoin="round"/>
    <path d="M-20 -37 L77 0 L-20 37 L8 0 Z" fill="none" stroke="#efffff" stroke-opacity=".82" stroke-width="5"/>
    <circle cx="31" cy="0" r="10" fill="#fff"/>
  </g>
</svg>
